# xmcd
#
# Track frame offsets:
#	150
#	18470
#	34807
#	53357
#	73867
#	92679
#	105715
#	125832
#	144727
#	166297
#
# Disc length: 2418 seconds
#
# Revision: 0
# Processed by: cddbd v1.4PL0 Copyright (c) Steve Scherf et al.
# Submitted via: EasyCDDAExtractor 4.6.9.1
#
DISCID=8909700a
DTITLE=Various Artist - Home For The Holidays
DYEAR=2003
DGENRE=
TTITLE0=O Christmas Tree
TTITLE1=What Child Is This
TTITLE2=O Holy Night
TTITLE3=God Rest Ye Merry Gentlemen
TTITLE4=The First Noel
TTITLE5=Deck The Halls
TTITLE6=Away In A Manger
TTITLE7=Up On A Housetop
TTITLE8=It Came Upon A Midnight Clear
TTITLE9=Silent Night
EXTD=
EXTT0=
EXTT1=
EXTT2=
EXTT3=
EXTT4=
EXTT5=
EXTT6=
EXTT7=
EXTT8=
EXTT9=
PLAYORDER=
